<?xml version="1.0" standalone="no"?>
<!DOCTYPE svg PUBLIC "-//W3C//DTD SVG 20010904//EN"
 "http://www.w3.org/TR/2001/REC-SVG-20010904/DTD/svg10.dtd">
<svg version="1.0" xmlns="http://www.w3.org/2000/svg"
 width="700.000000pt" height="700.000000pt" viewBox="0 0 700.000000 700.000000"
 preserveAspectRatio="xMidYMid meet">
<metadata>
Created by potrace 1.14, written by Peter Selinger 2001-2017
</metadata>
<g transform="translate(0.000000,700.000000) scale(0.100000,-0.100000)"
fill="#000000" stroke="none">
<path d="M3547 5794 c-1 -1 -28 -4 -59 -7 -204 -18 -395 -163 -475 -360 -32
-78 -34 -86 -40 -178 -8 -108 11 -199 59 -297 42 -86 131 -189 196 -227 27
-16 32 -25 32 -57 0 -21 -3 -38 -7 -39 -5 0 -80 -2 -168 -3 -130 -1 -170 -5
-214 -21 -171 -62 -244 -257 -155 -412 34 -59 69 -90 134 -121 52 -25 65 -26
225 -29 94 -1 173 -2 178 -2 4 -1 7 -475 7 -1055 l0 -1054 -57 13 c-32 6 -101
27 -153 45 -325 112 -602 326 -798 617 -66 97 -67 93 32 93 80 0 88 2 116 28
41 37 44 70 12 134 -14 29 -29 55 -34 56 -4 2 -8 7 -8 12 0 5 -71 131 -158
282 -87 150 -192 331 -232 401 -40 71 -85 137 -98 148 -30 23 -79 25 -109 4
-12 -8 -55 -72 -95 -143 -40 -70 -77 -135 -83 -144 -5 -10 -37 -64 -69 -120
-33 -57 -115 -198 -183 -315 -135 -233 -143 -258 -99 -310 24 -28 26 -28 166
-33 l141 -5 33 -80 c93 -226 208 -388 435 -615 312 -310 765 -617 1287 -871
208 -102 242 -108 349 -59 243 109 582 295 800 438 529 347 904 736 1062 1103
l38 87 137 4 c155 3 173 11 185 81 5 33 -9 61 -172 344 -98 169 -189 328 -204
354 -14 25 -55 96 -91 158 -65 112 -93 141 -139 141 -30 0 -65 -19 -81 -43
-16 -25 -101 -171 -136 -234 -13 -23 -63 -108 -110 -190 -48 -81 -98 -168
-112 -193 -14 -25 -57 -99 -95 -165 -58 -98 -71 -128 -71 -162 1 -71 39 -93
159 -93 l87 0 -23 -37 c-117 -194 -300 -385 -484 -505 -162 -105 -399 -202
-535 -220 l-25 -3 0 1053 c-1 721 2 1052 10 1053 5 0 87 2 180 3 147 2 176 5
216 22 110 51 173 148 172 269 0 103 -36 171 -122 233 -64 46 -108 55 -281 58
-85 1 -160 2 -165 3 -6 1 -11 17 -12 36 -1 31 5 39 47 70 155 114 243 284 242
470 0 172 -54 300 -177 420 -43 42 -95 82 -131 99 -32 16 -66 32 -75 37 -24
11 -194 40 -202 33z m167 -232 c82 -38 150 -107 189 -190 29 -61 32 -76 32
-162 0 -86 -3 -102 -31 -160 -37 -78 -104 -150 -173 -184 -78 -40 -81 -49 -81
-213 0 -78 4 -153 10 -167 19 -50 50 -56 280 -56 169 0 217 -3 240 -15 58 -30
67 -95 22 -146 l-29 -32 -224 -2 c-123 -1 -229 -3 -235 -3 -6 -1 -22 -11 -35
-23 l-24 -21 -3 -1191 c-2 -884 1 -1199 9 -1220 23 -54 61 -62 194 -41 85 13
249 60 343 98 245 99 430 223 616 414 181 186 368 496 345 574 -16 58 -56 75
-166 73 -62 -1 -71 2 -54 21 5 5 20 29 33 54 25 44 187 326 241 418 15 26 33
57 39 70 6 12 14 22 18 22 5 0 60 -92 159 -264 13 -22 45 -79 72 -124 27 -46
49 -86 49 -88 0 -2 14 -25 30 -51 17 -26 30 -50 30 -53 0 -4 -31 -6 -70 -5
-111 3 -133 -15 -175 -140 -108 -328 -498 -747 -990 -1066 -135 -88 -180 -116
-215 -135 -19 -10 -42 -24 -50 -30 -36 -27 -376 -204 -497 -260 l-72 -33 -198
99 c-302 151 -517 278 -743 439 -25 17 -56 39 -70 49 -44 29 -213 167 -285
232 -271 245 -476 542 -514 745 -15 81 -49 101 -168 100 -40 -1 -73 3 -73 7 0
5 10 25 23 46 13 20 37 62 54 92 16 30 69 123 118 205 48 83 98 169 112 193
13 23 28 40 33 37 5 -3 59 -94 121 -203 62 -108 120 -208 129 -222 9 -14 33
-54 52 -90 l36 -65 -86 -1 c-83 -1 -86 -2 -114 -33 -38 -42 -36 -71 11 -168
133 -274 352 -522 615 -695 90 -59 303 -168 329 -168 7 0 17 -4 23 -8 5 -5 36
-17 69 -27 33 -10 71 -22 85 -26 35 -12 165 -37 228 -45 60 -7 93 8 115 54 19
38 18 2375 -1 2409 -24 44 -46 48 -262 49 -113 1 -215 3 -228 3 -28 1 -69 40
-77 74 -9 33 19 91 50 105 15 7 107 12 245 12 212 1 222 2 245 23 36 31 42 64
40 214 -2 149 -6 158 -78 195 -49 25 -123 92 -151 138 -73 117 -80 258 -20
385 23 51 117 145 169 170 109 52 238 54 339 7z"/>
<path d="M3503 5395 c-95 -28 -150 -107 -140 -200 7 -69 29 -109 77 -141 170
-113 370 59 283 244 -36 76 -138 121 -220 97z"/>
</g>
</svg>
